<svg xmlns="http://www.w3.org/2000/svg" viewBox="0 0 173.52 105.27"><defs><style>.cls-1,.cls-2{fill:#fff;}.cls-1{stroke:#fff;stroke-miterlimit:10;}</style></defs><title>druk-big-fish-burger-btn</title><g id="Шар_5" data-name="Шар 5"><path class="cls-1" d="M61.7,98s86.6-2.35,90.78-2.48,17.35-2.09,18.52,12.65-1.17,29.87,11.87,29.22c0,0,5.74-.62,6.39,4.38s2.94,8.79-3.78,10.1c-5.51,1.07-11-.07-11.35,12.78-.27,10.56,6.13,31.69-15.26,32.35S71,199.6,68.51,199.6s-11.05-.49-11.05-2.55,8.51-3.81,11.64-4,77.64-4.43,83.25-4.56,12.13-1.18,11.74-9.91.26-9.79-7.05-10.7-8.34-.78-19.95-.78S72,169.43,68.61,169.57s-11.74-1-11.87-2.74,6.91-4.7,13-5.09,47.87-1.57,61.05-2.35,32.74-.52,32.47-9.78,3.27-19.83-11-19.7-81.26,2.61-86,2.61-10.56-.78-10.56-2.74,11.6-3.39,16.3-3.52,39.52-1.3,47.87-1.69,28-1.31,34.83-3.4,6.91-3.26,6.13-7-4.18-10.7-11.87-11.09-43.7-1.82-51-1.56l-7.31.26S76,103.3,70.3,103.57a38.92,38.92,0,0,1-9.78-.4c-2.74-.39-7-1.17-7-2.47S57.91,98.06,61.7,98Z" transform="translate(-52.98 -94.82)"/><path class="cls-2" d="M202.24,145.35c-.67-.61-2-2.67-.89-3.32s1.84.3,2.36,1,1.51,1.45.91,2.12a2.47,2.47,0,0,1-.7.55A1.88,1.88,0,0,1,202.24,145.35Z" transform="translate(-52.98 -94.82)"/><path class="cls-2" d="M199.49,144.85c.49-.43,1.34.14,1.95.61s.72,1.28.38,1.54-1.42-.23-1.89-.71S199.11,145.18,199.49,144.85Z" transform="translate(-52.98 -94.82)"/><path class="cls-2" d="M214.29,144.71c.72-.65,1.61-.8,1.91-.53s0,1.18-.61,1.7-1.65,1.41-2.18.94S214.29,144.71,214.29,144.71Z" transform="translate(-52.98 -94.82)"/><path class="cls-2" d="M212.15,143.76c.33-.26-1.35-1.33-.35-2.18s1.67.14,2.11.58,1.11,1.15.53,1.79-2.18,2.44-2.64,1.85A1.32,1.32,0,0,1,212.15,143.76Z" transform="translate(-52.98 -94.82)"/><path class="cls-2" d="M216.72,127.65c-1.18-.06-2.74,1-2.29,2.09s3.85,3.13,5.74,5.54a8,8,0,0,1,1.7,5.68c0,1-.65,3.13-2-1.9s-5.55-7.82-6.92-8.21-14.6.91-17.64,1.17-1.66,1.24-.75,2.56,1,3.24.26,3.38-1.56-1.05-2-2.48a10,10,0,0,0-2.94-3.92c-.45-.19-3-1.43-5,2.16s1.83,1.76,1.83,1.76c3.65-1.37,4.95,6,5.54,9s-.91,8.18-2.41,8.51-2.68-.53-3.46.19,2.54,4.5,5.41,4.63,3.33-4,3.33-5.54-.06-3.72.91-3.72.66,1.44.72,3-.19,3.59,1.37,3.72,15.72.52,17.67.32,2.87-4.17,4.11-3.13-1.69,2.61-2.21,3.66.13,2.41,2.41,2.28,6.32-5.15,6.39-16.09S217.89,127.72,216.72,127.65Zm-14.87,20.86c-5.22,0-5.21-8.1,0-8.1S207.06,148.51,201.85,148.51Zm11.67-.46c-5.22,0-5.21-8.1,0-8.1S218.73,148.05,213.52,148.05Z" transform="translate(-52.98 -94.82)"/></g></svg>